<svg width="1440" height="65" viewBox="0 0 1440 65" fill="none" xmlns="http://www.w3.org/2000/svg">
<line y1="31" x2="1440" y2="31" stroke="black" stroke-width="2"/>
<path d="M722.286 32.8572C722.286 41.3545 719.858 49.0049 715.983 54.5046C712.106 60.007 706.844 63.2857 701.143 63.2857C695.441 63.2857 690.18 60.007 686.303 54.5046C682.428 49.0049 680 41.3545 680 32.8572C680 24.3598 682.428 16.7094 686.303 11.2098C690.18 5.70734 695.441 2.42859 701.143 2.42859C706.844 2.42859 712.106 5.70734 715.983 11.2098C719.858 16.7094 722.286 24.3598 722.286 32.8572Z" fill="white" stroke="black" stroke-width="2"/>
<path d="M760 31.4286C760 39.9259 757.572 47.5763 753.697 53.076C749.82 58.5784 744.559 61.8571 738.857 61.8571C733.156 61.8571 727.894 58.5784 724.017 53.076C720.142 47.5763 717.714 39.9259 717.714 31.4286C717.714 22.9312 720.142 15.2808 724.017 9.78117C727.894 4.27875 733.156 1 738.857 1C744.559 1 749.82 4.27875 753.697 9.78117C757.572 15.2808 760 22.9312 760 31.4286Z" fill="white" stroke="black" stroke-width="2"/>
<ellipse cx="704.571" cy="45.1429" rx="8.57143" ry="12.1429" fill="black"/>
<ellipse cx="742.286" cy="45.1429" rx="8.57143" ry="12.1429" fill="black"/>
</svg>
